<svg width="155" height="30" viewBox="0 0 155 30" fill="none" xmlns="http://www.w3.org/2000/svg">
<path d="M6.752 21.128C5.632 21.128 4.61867 20.8827 3.712 20.392C2.816 19.8907 2.112 19.208 1.6 18.344C1.088 17.4693 0.832 16.488 0.832 15.4C0.832 14.312 1.088 13.336 1.6 12.472C2.112 11.5973 2.82133 10.9147 3.728 10.424C4.63467 9.92267 5.648 9.672 6.768 9.672C7.64267 9.672 8.44267 9.82133 9.168 10.12C9.89333 10.408 10.512 10.84 11.024 11.416L9.984 12.424C9.14133 11.5387 8.09067 11.096 6.832 11.096C6 11.096 5.248 11.2827 4.576 11.656C3.904 12.0293 3.376 12.5467 2.992 13.208C2.61867 13.8587 2.432 14.5893 2.432 15.4C2.432 16.2107 2.61867 16.9467 2.992 17.608C3.376 18.2587 3.904 18.7707 4.576 19.144C5.248 19.5173 6 19.704 6.832 19.704C8.08 19.704 9.13067 19.256 9.984 18.36L11.024 19.368C10.512 19.944 9.888 20.3813 9.152 20.68C8.42667 20.9787 7.62667 21.128 6.752 21.128ZM20.8284 12.52V21H19.2924V13.864H14.5084V21H12.9724V12.52H20.8284ZM23.8005 12.52H25.3365V18.696L30.5365 12.52H31.9285V21H30.3925V14.824L25.2085 21H23.8005V12.52ZM38.6059 21.096C37.7419 21.096 36.9685 20.9093 36.2859 20.536C35.6139 20.1627 35.0859 19.6507 34.7019 19C34.3179 18.3387 34.1259 17.592 34.1259 16.76C34.1259 15.928 34.3179 15.1867 34.7019 14.536C35.0859 13.8747 35.6139 13.3627 36.2859 13C36.9685 12.6267 37.7419 12.44 38.6059 12.44C39.3739 12.44 40.0565 12.5947 40.6539 12.904C41.2619 13.2133 41.7312 13.6613 42.0619 14.248L40.8939 15C40.6272 14.5947 40.2965 14.2907 39.9019 14.088C39.5072 13.8853 39.0699 13.784 38.5899 13.784C38.0352 13.784 37.5339 13.9067 37.0859 14.152C36.6485 14.3973 36.3019 14.7493 36.0459 15.208C35.8005 15.656 35.6779 16.1733 35.6779 16.76C35.6779 17.3573 35.8005 17.8853 36.0459 18.344C36.3019 18.792 36.6485 19.1387 37.0859 19.384C37.5339 19.6293 38.0352 19.752 38.5899 19.752C39.0699 19.752 39.5072 19.6507 39.9019 19.448C40.2965 19.2453 40.6272 18.9413 40.8939 18.536L42.0619 19.272C41.7312 19.8587 41.2619 20.312 40.6539 20.632C40.0565 20.9413 39.3739 21.096 38.6059 21.096ZM47.5575 21.096C46.7148 21.096 45.9575 20.9093 45.2855 20.536C44.6135 20.1627 44.0855 19.6507 43.7015 19C43.3282 18.3387 43.1415 17.592 43.1415 16.76C43.1415 15.928 43.3282 15.1867 43.7015 14.536C44.0855 13.8747 44.6135 13.3627 45.2855 13C45.9575 12.6267 46.7148 12.44 47.5575 12.44C48.4002 12.44 49.1522 12.6267 49.8135 13C50.4855 13.3627 51.0082 13.8747 51.3815 14.536C51.7655 15.1867 51.9575 15.928 51.9575 16.76C51.9575 17.592 51.7655 18.3387 51.3815 19C51.0082 19.6507 50.4855 20.1627 49.8135 20.536C49.1522 20.9093 48.4002 21.096 47.5575 21.096ZM47.5575 19.752C48.1015 19.752 48.5868 19.6293 49.0135 19.384C49.4508 19.128 49.7922 18.776 50.0375 18.328C50.2828 17.8693 50.4055 17.3467 50.4055 16.76C50.4055 16.1733 50.2828 15.656 50.0375 15.208C49.7922 14.7493 49.4508 14.3973 49.0135 14.152C48.5868 13.9067 48.1015 13.784 47.5575 13.784C47.0135 13.784 46.5228 13.9067 46.0855 14.152C45.6588 14.3973 45.3175 14.7493 45.0615 15.208C44.8162 15.656 44.6935 16.1733 44.6935 16.76C44.6935 17.3467 44.8162 17.8693 45.0615 18.328C45.3175 18.776 45.6588 19.128 46.0855 19.384C46.5228 19.6293 47.0135 19.752 47.5575 19.752ZM57.4715 17.416H55.7115V21H54.1755V12.52H55.7115V16.104H57.5035L60.2555 12.52H61.9035L58.6875 16.6L62.1275 21H60.3195L57.4715 17.416ZM75.8909 12.52V21H74.3549V13.864H69.5709V21H68.0349V12.52H75.8909ZM83.359 12.44C84.1803 12.44 84.9163 12.6213 85.567 12.984C86.2177 13.3467 86.7243 13.8533 87.087 14.504C87.4603 15.1547 87.647 15.9067 87.647 16.76C87.647 17.6133 87.4603 18.3707 87.087 19.032C86.7243 19.6827 86.2177 20.1893 85.567 20.552C84.9163 20.9147 84.1803 21.096 83.359 21.096C82.751 21.096 82.191 20.9787 81.679 20.744C81.1777 20.5093 80.751 20.168 80.399 19.72V24.104H78.863V12.52H80.335V13.864C80.6763 13.3947 81.1083 13.0427 81.631 12.808C82.1537 12.5627 82.7297 12.44 83.359 12.44ZM83.231 19.752C83.775 19.752 84.2603 19.6293 84.687 19.384C85.1243 19.128 85.4657 18.776 85.711 18.328C85.967 17.8693 86.095 17.3467 86.095 16.76C86.095 16.1733 85.967 15.656 85.711 15.208C85.4657 14.7493 85.1243 14.3973 84.687 14.152C84.2603 13.9067 83.775 13.784 83.231 13.784C82.6977 13.784 82.2123 13.912 81.775 14.168C81.3483 14.4133 81.007 14.76 80.751 15.208C80.5057 15.656 80.383 16.1733 80.383 16.76C80.383 17.3467 80.5057 17.8693 80.751 18.328C80.9963 18.776 81.3377 19.128 81.775 19.384C82.2123 19.6293 82.6977 19.752 83.231 19.752ZM93.5106 21.096C92.668 21.096 91.9106 20.9093 91.2386 20.536C90.5666 20.1627 90.0386 19.6507 89.6546 19C89.2813 18.3387 89.0946 17.592 89.0946 16.76C89.0946 15.928 89.2813 15.1867 89.6546 14.536C90.0386 13.8747 90.5666 13.3627 91.2386 13C91.9106 12.6267 92.668 12.44 93.5106 12.44C94.3533 12.44 95.1053 12.6267 95.7666 13C96.4386 13.3627 96.9613 13.8747 97.3346 14.536C97.7186 15.1867 97.9106 15.928 97.9106 16.76C97.9106 17.592 97.7186 18.3387 97.3346 19C96.9613 19.6507 96.4386 20.1627 95.7666 20.536C95.1053 20.9093 94.3533 21.096 93.5106 21.096ZM93.5106 19.752C94.0546 19.752 94.54 19.6293 94.9666 19.384C95.404 19.128 95.7453 18.776 95.9906 18.328C96.236 17.8693 96.3586 17.3467 96.3586 16.76C96.3586 16.1733 96.236 15.656 95.9906 15.208C95.7453 14.7493 95.404 14.3973 94.9666 14.152C94.54 13.9067 94.0546 13.784 93.5106 13.784C92.9666 13.784 92.476 13.9067 92.0386 14.152C91.612 14.3973 91.2706 14.7493 91.0146 15.208C90.7693 15.656 90.6466 16.1733 90.6466 16.76C90.6466 17.3467 90.7693 17.8693 91.0146 18.328C91.2706 18.776 91.612 19.128 92.0386 19.384C92.476 19.6293 92.9666 19.752 93.5106 19.752ZM108.69 19.656V22.968H107.25V21H100.162V22.968H98.7061V19.656H99.1541C99.6981 19.624 100.071 19.24 100.274 18.504C100.477 17.768 100.615 16.728 100.69 15.384L100.818 12.52H107.394V19.656H108.69ZM102.098 15.496C102.055 16.5627 101.965 17.448 101.826 18.152C101.698 18.8453 101.458 19.3467 101.106 19.656H105.858V13.864H102.178L102.098 15.496ZM118.259 12.52L114.147 21.848C113.784 22.712 113.358 23.32 112.867 23.672C112.387 24.024 111.806 24.2 111.123 24.2C110.707 24.2 110.302 24.1307 109.907 23.992C109.523 23.864 109.203 23.672 108.947 23.416L109.603 22.264C110.04 22.68 110.547 22.888 111.123 22.888C111.496 22.888 111.806 22.7867 112.051 22.584C112.307 22.392 112.536 22.056 112.739 21.576L113.011 20.984L109.267 12.52H110.867L113.827 19.304L116.755 12.52H118.259ZM123.128 17.416H121.368V21H119.832V12.52H121.368V16.104H123.16L125.912 12.52H127.56L124.344 16.6L127.784 21H125.976L123.128 17.416ZM135.574 13.864H132.47V21H130.934V13.864H127.83V12.52H135.574V13.864ZM140.401 21.096C139.559 21.096 138.801 20.9093 138.129 20.536C137.457 20.1627 136.929 19.6507 136.545 19C136.172 18.3387 135.985 17.592 135.985 16.76C135.985 15.928 136.172 15.1867 136.545 14.536C136.929 13.8747 137.457 13.3627 138.129 13C138.801 12.6267 139.559 12.44 140.401 12.44C141.244 12.44 141.996 12.6267 142.657 13C143.329 13.3627 143.852 13.8747 144.225 14.536C144.609 15.1867 144.801 15.928 144.801 16.76C144.801 17.592 144.609 18.3387 144.225 19C143.852 19.6507 143.329 20.1627 142.657 20.536C141.996 20.9093 141.244 21.096 140.401 21.096ZM140.401 19.752C140.945 19.752 141.431 19.6293 141.857 19.384C142.295 19.128 142.636 18.776 142.881 18.328C143.127 17.8693 143.249 17.3467 143.249 16.76C143.249 16.1733 143.127 15.656 142.881 15.208C142.636 14.7493 142.295 14.3973 141.857 14.152C141.431 13.9067 140.945 13.784 140.401 13.784C139.857 13.784 139.367 13.9067 138.929 14.152C138.503 14.3973 138.161 14.7493 137.905 15.208C137.66 15.656 137.537 16.1733 137.537 16.76C137.537 17.3467 137.66 17.8693 137.905 18.328C138.161 18.776 138.503 19.128 138.929 19.384C139.367 19.6293 139.857 19.752 140.401 19.752ZM152.795 16.6C153.894 16.8773 154.443 17.5653 154.443 18.664C154.443 19.4107 154.161 19.9867 153.595 20.392C153.041 20.7973 152.209 21 151.099 21H147.019V12.52H150.955C151.958 12.52 152.742 12.712 153.307 13.096C153.873 13.4693 154.155 14.0027 154.155 14.696C154.155 15.144 154.033 15.5333 153.787 15.864C153.553 16.184 153.222 16.4293 152.795 16.6ZM148.523 16.168H150.827C151.414 16.168 151.857 16.0613 152.155 15.848C152.465 15.6347 152.619 15.3253 152.619 14.92C152.619 14.1093 152.022 13.704 150.827 13.704H148.523V16.168ZM150.987 19.816C151.627 19.816 152.107 19.7147 152.427 19.512C152.747 19.3093 152.907 18.9947 152.907 18.568C152.907 18.1307 152.758 17.8053 152.459 17.592C152.171 17.3787 151.713 17.272 151.083 17.272H148.523V19.816H150.987Z" fill="#3D495B"/>
</svg>
